name analog
datacolumns 19
datarows 58
range 0.1505 0.179
endheader
time	ground_force_vx	ground_force_vy	ground_force_vz	ground_force_px	ground_force_py	ground_force_pz	l_ground_force_vx	l_ground_force_vy	l_ground_force_vz	l_ground_force_px	l_ground_force_py	l_ground_force_pz	ground_torque_x	ground_torque_y	ground_torque_z	l_ground_torque_x	l_ground_torque_y	l_ground_torque_z
0.1505	-0.0	-0.0	-0.0	-0.0	-0.0	-0.0	3.637142181396485	12.736244201660156	-863.288330078125	-0.0	-0.0	-0.0	-0.0	-0.0	-0.0	248437.5	-4175.2119140625	324.2445678710937
0.151	-0.0	-0.0	-0.0	-0.0	-0.0	-0.0	4.25811767578125	12.471156120300291	-859.169189453125	-0.0	-0.0	-0.0	-0.0	-0.0	-0.0	247349.4375	-4320.19775390625	508.5672607421875
0.1515	-0.0	-0.0	-0.0	-0.0	-0.0	-0.0	4.5419020652771	12.117645263671877	-854.2587890625	-0.0	-0.0	-0.0	-0.0	-0.0	-0.0	246212.234375	-4654.98291015625	613.4120483398438
0.152	-0.0	-0.0	-0.0	-0.0	-0.0	-0.0	4.820393085479736	12.259312629699709	-850.5580444335938	-0.0	-0.0	-0.0	-0.0	-0.0	-0.0	245000.34375	-4923.31884765625	738.10791015625
0.1525	-0.0	-0.0	-0.0	-0.0	-0.0	-0.0	5.316216945648193	12.093668937683104	-847.9020385742188	-0.0	-0.0	-0.0	-0.0	-0.0	-0.0	244052.8125	-5296.5107421875	724.593017578125
0.153	-0.0	-0.0	-0.0	-0.0	-0.0	-0.0	6.356586456298828	11.818050384521484	-844.4364624023438	-0.0	-0.0	-0.0	-0.0	-0.0	-0.0	242846.953125	-5483.93212890625	1081.15625
0.1535	-0.0	-0.0	-0.0	-0.0	-0.0	-0.0	7.6700029373168945	11.328988075256348	-841.106201171875	-0.0	-0.0	-0.0	-0.0	-0.0	-0.0	241792.59375	-5629.15673828125	1319.220703125
0.154	-0.0	-0.0	-0.0	-0.0	-0.0	-0.0	8.12066650390625	10.703583717346191	-835.8975219726562	-0.0	-0.0	-0.0	-0.0	-0.0	-0.0	240503.109375	-5780.02685546875	1445.986328125
0.1545	-0.0	-0.0	-0.0	-0.0	-0.0	-0.0	8.911721229553223	9.66752815246582	-833.7740478515625	-0.0	-0.0	-0.0	-0.0	-0.0	-0.0	239550.734375	-5810.72998046875	1624.242431640625
0.155	-0.0	-0.0	-0.0	-0.0	-0.0	-0.0	9.129624366760254	8.920490264892578	-830.9808349609375	-0.0	-0.0	-0.0	-0.0	-0.0	-0.0	238701.640625	-5889.13623046875	1583.4898681640625
0.1555	-0.0	-0.0	-0.0	-0.0	-0.0	-0.0	9.774449348449709	8.350325584411621	-829.9974365234375	-0.0	-0.0	-0.0	-0.0	-0.0	-0.0	237292.234375	-5864.4921875	1999.364013671875
0.156	-0.0	-0.0	-0.0	-0.0	-0.0	-0.0	8.919492721557617	6.600025653839111	-827.5526733398438	-0.0	-0.0	-0.0	-0.0	-0.0	-0.0	236414.96875	-5573.8681640625	1806.76611328125
0.1565	-0.0	-0.0	-0.0	-0.0	-0.0	-0.0	8.443490982055664	4.769371032714844	-824.028076171875	-0.0	-0.0	-0.0	-0.0	-0.0	-0.0	235361.421875	-5357.818359375	1630.6302490234375
0.157	-0.0	-0.0	-0.0	-0.0	-0.0	-0.0	7.63770866394043	3.411785840988159	-821.20458984375	-0.0	-0.0	-0.0	-0.0	-0.0	-0.0	234564.625	-4826.947265625	1462.7059326171875
0.1575	-0.0	-0.0	-0.0	-0.0	-0.0	-0.0	6.467075347900391	2.634150266647339	-818.760498046875	-0.0	-0.0	-0.0	-0.0	-0.0	-0.0	233998.78125	-4591.34228515625	1148.807373046875
0.158	-0.0	-0.0	-0.0	-0.0	-0.0	-0.0	5.258391857147217	2.6587226390838623	-817.1110229492188	-0.0	-0.0	-0.0	-0.0	-0.0	-0.0	233283.40625	-4103.26806640625	749.0630493164062
0.1585	-0.0	-0.0	-0.0	-0.0	-0.0	-0.0	4.796329498291016	2.707662343978882	-816.6656494140625	-0.0	-0.0	-0.0	-0.0	-0.0	-0.0	233453.421875	-4090.828857421875	298.7506408691406
0.159	-0.0	-0.0	-0.0	-0.0	-0.0	-0.0	4.071190357208252	3.797832489013672	-818.6265258789062	-0.0	-0.0	-0.0	-0.0	-0.0	-0.0	234018.09375	-4068.54541015625	208.3297882080078
0.1595	-0.0	-0.0	-0.0	-0.0	-0.0	-0.0	4.603155136108398	4.823409080505371	-819.0127563476562	-0.0	-0.0	-0.0	-0.0	-0.0	-0.0	234309.90625	-3826.02978515625	119.876220703125
0.16	-0.0	-0.0	-0.0	-0.0	-0.0	-0.0	5.263338088989258	6.398359298706055	-820.1963500976562	-0.0	-0.0	-0.0	-0.0	-0.0	-0.0	234968.15625	-3756.84228515625	18.5337028503418
0.1605	-0.0	-0.0	-0.0	-0.0	-0.0	-0.0	4.825226783752441	8.051787376403809	-823.0651245117188	-0.0	-0.0	-0.0	-0.0	-0.0	-0.0	235538.921875	-3599.913330078125	-126.31705474853516
0.161	-0.0	-0.0	-0.0	-0.0	-0.0	-0.0	4.740810394287109	10.10763931274414	-824.6550903320312	-0.0	-0.0	-0.0	-0.0	-0.0	-0.0	235938.90625	-3574.78125	-427.2445373535156
0.1615	-0.0	-0.0	-0.0	-0.0	-0.0	-0.0	4.754874229431152	11.849223136901855	-823.7884521484375	-0.0	-0.0	-0.0	-0.0	-0.0	-0.0	236084.578125	-3218.27294921875	-489.58978271484375
0.162	-0.0	-0.0	-0.0	-0.0	-0.0	-0.0	5.297728538513184	13.110312461853027	-824.5	-0.0	-0.0	-0.0	-0.0	-0.0	-0.0	236110.125	-2704.297119140625	-323.8729248046875
0.1625	-0.0	-0.0	-0.0	-0.0	-0.0	-0.0	5.03155517578125	13.626389503479004	-822.4047241210938	-0.0	-0.0	-0.0	-0.0	-0.0	-0.0	235652.96875	-2494.2626953125	-332.2364196777344
0.163	-0.0	-0.0	-0.0	-0.0	-0.0	-0.0	3.066167116165161	13.477087020874023	-820.3539428710938	-0.0	-0.0	-0.0	-0.0	-0.0	-0.0	235197.75	-1516.383056640625	-859.23779296875
0.1635	-0.0	-0.0	-0.0	-0.0	-0.0	-0.0	0.6711259484291077	12.933357238769531	-822.358154296875	-0.0	-0.0	-0.0	-0.0	-0.0	-0.0	235352.875	-901.0120239257812	-1509.1036376953125
0.164	-0.0	-0.0	-0.0	-0.0	-0.0	-0.0	-0.9004197716712952	12.35178279876709	-822.05419921875	-0.0	-0.0	-0.0	-0.0	-0.0	-0.0	235450.84375	-521.5957641601562	-1959.282470703125
0.1645	-0.0	-0.0	-0.0	-0.0	-0.0	-0.0	-1.9012901782989504	12.02488136291504	-822.653076171875	-0.0	-0.0	-0.0	-0.0	-0.0	-0.0	235346.203125	-3.874525547027588	-2181.011962890625
0.165	-0.0	-0.0	-0.0	-0.0	-0.0	-0.0	-2.839426755905152	11.658462524414062	-823.498291015625	-0.0	-0.0	-0.0	-0.0	-0.0	-0.0	235867.515625	417.7503051757813	-2130.53369140625
0.1655	-0.0	-0.0	-0.0	-0.0	-0.0	-0.0	-2.889357089996338	11.40623378753662	-826.6421508789062	-0.0	-0.0	-0.0	-0.0	-0.0	-0.0	236477.828125	723.2811279296875	-2363.81884765625
0.166	-0.0	-0.0	-0.0	-0.0	-0.0	-0.0	-3.7130398750305176	11.456793785095217	-830.9799194335938	-0.0	-0.0	-0.0	-0.0	-0.0	-0.0	237251.359375	1210.5655517578125	-2572.01513671875
0.1665	-0.0	-0.0	-0.0	-0.0	-0.0	-0.0	-3.130299568176269	12.12485122680664	-833.822998046875	-0.0	-0.0	-0.0	-0.0	-0.0	-0.0	238602.75	1218.8135986328125	-2588.240966796875
0.167	-0.0	-0.0	-0.0	-0.0	-0.0	-0.0	-3.079414367675781	12.403471946716309	-837.912109375	-0.0	-0.0	-0.0	-0.0	-0.0	-0.0	239439.234375	1380.5120849609375	-2342.498779296875
0.1675	-0.0	-0.0	-0.0	-0.0	-0.0	-0.0	-1.8642719984054563	12.35299301147461	-840.5560913085938	-0.0	-0.0	-0.0	-0.0	-0.0	-0.0	240038.109375	1747.16943359375	-2159.6181640625
0.168	-0.0	-0.0	-0.0	-0.0	-0.0	-0.0	-1.180585503578186	12.616388320922852	-840.8040161132812	-0.0	-0.0	-0.0	-0.0	-0.0	-0.0	240296.71875	1968.4063720703125	-2044.453857421875
0.1685	-0.0	-0.0	-0.0	-0.0	-0.0	-0.0	-0.5558626651763916	11.216854095458984	-842.3474731445312	-0.0	-0.0	-0.0	-0.0	-0.0	-0.0	239565.375	2086.091064453125	-1946.800048828125
0.169	-0.0	-0.0	-0.0	-0.0	-0.0	-0.0	-0.0771367400884628	10.333637237548828	-838.763427734375	-0.0	-0.0	-0.0	-0.0	-0.0	-0.0	238583.359375	2411.7353515625	-1870.1348876953125
0.1695	-0.0	-0.0	-0.0	-0.0	-0.0	-0.0	-0.1144636422395706	9.299416542053224	-836.2744750976562	-0.0	-0.0	-0.0	-0.0	-0.0	-0.0	237459.046875	3030.25830078125	-1756.50927734375
0.17	-0.0	-0.0	-0.0	-0.0	-0.0	-0.0	-1.1274123191833496	8.228453636169434	-834.3264770507812	-0.0	-0.0	-0.0	-0.0	-0.0	-0.0	236969.484375	3688.50927734375	-2028.25732421875
0.1705	-0.0	-0.0	-0.0	-0.0	-0.0	-0.0	-4.154574394226074	6.25983476638794	-834.5593872070312	-0.0	-0.0	-0.0	-0.0	-0.0	-0.0	236266.9375	4136.69873046875	-2861.46484375
0.171	-0.0	-0.0	-0.0	-0.0	-0.0	-0.0	-7.813244819641113	4.769371032714844	-836.1588134765625	-0.0	-0.0	-0.0	-0.0	-0.0	-0.0	236229.53125	4787.546875	-3810.017822265625
0.1715	-0.0	-0.0	-0.0	-0.0	-0.0	-0.0	-10.363798141479492	3.672998189926148	-838.9508666992188	-0.0	-0.0	-0.0	-0.0	-0.0	-0.0	236451.515625	5081.0712890625	-4560.8623046875
0.17200000000000001	-0.0	-0.0	-0.0	-0.0	-0.0	-0.0	-11.506342887878418	3.2369840145111084	-841.4968872070312	-0.0	-0.0	-0.0	-0.0	-0.0	-0.0	236741.484375	5151.83984375	-4753.60791015625
0.17250000000000001	-0.0	-0.0	-0.0	-0.0	-0.0	-0.0	-10.864506721496582	3.330238103866577	-845.7479858398438	-0.0	-0.0	-0.0	-0.0	-0.0	-0.0	237314.0625	5051.47998046875	-4672.86279296875
0.17300000000000001	-0.0	-0.0	-0.0	-0.0	-0.0	-0.0	-9.570579528808594	3.7457115650177	-850.0811767578125	-0.0	-0.0	-0.0	-0.0	-0.0	-0.0	238078.671875	4853.55029296875	-4274.0712890625
0.17350000000000002	-0.0	-0.0	-0.0	-0.0	-0.0	-0.0	-7.816561698913574	4.873841762542725	-852.7708740234375	-0.0	-0.0	-0.0	-0.0	-0.0	-0.0	238150.296875	4373.42138671875	-3825.55810546875
0.17400000000000002	-0.0	-0.0	-0.0	-0.0	-0.0	-0.0	-5.480493545532227	6.130133152008057	-853.9213256835938	-0.0	-0.0	-0.0	-0.0	-0.0	-0.0	237712.453125	4061.326904296875	-3164.322998046875
0.17450000000000002	-0.0	-0.0	-0.0	-0.0	-0.0	-0.0	-3.486069202423096	6.862858295440674	-852.6663208007812	-0.0	-0.0	-0.0	-0.0	-0.0	-0.0	236231.046875	3938.629638671875	-2575.9287109375
0.17500000000000002	-0.0	-0.0	-0.0	-0.0	-0.0	-0.0	-2.359259366989136	6.862817764282227	-849.9764404296875	-0.0	-0.0	-0.0	-0.0	-0.0	-0.0	234816.125	3913.756103515625	-2301.714599609375
0.17550000000000002	-0.0	-0.0	-0.0	-0.0	-0.0	-0.0	-2.6877880096435547	6.526528358459473	-846.8335571289062	-0.0	-0.0	-0.0	-0.0	-0.0	-0.0	232720.21875	3923.193115234375	-2373.377197265625
0.176	-0.0	-0.0	-0.0	-0.0	-0.0	-0.0	-3.619763612747192	5.263791561126709	-841.3870239257812	-0.0	-0.0	-0.0	-0.0	-0.0	-0.0	230481.921875	4161.1748046875	-2626.65673828125
0.1765	-0.0	-0.0	-0.0	-0.0	-0.0	-0.0	-3.601557970046997	4.1421380043029785	-833.634033203125	-0.0	-0.0	-0.0	-0.0	-0.0	-0.0	227904.8125	4747.87646484375	-2576.414794921875
0.177	-0.0	-0.0	-0.0	-0.0	-0.0	-0.0	-3.486358880996704	2.4554922580718994	-827.6643676757812	-0.0	-0.0	-0.0	-0.0	-0.0	-0.0	225327.125	4979.552734375	-2529.265380859375
0.1775	-0.0	-0.0	-0.0	-0.0	-0.0	-0.0	-3.5310845375061035	1.0512248277664185	-821.6587524414062	-0.0	-0.0	-0.0	-0.0	-0.0	-0.0	222660.546875	5307.11962890625	-2324.960693359375
0.178	-0.0	-0.0	-0.0	-0.0	-0.0	-0.0	-4.684774398803711	-0.8565801382064819	-817.7850952148438	-0.0	-0.0	-0.0	-0.0	-0.0	-0.0	220525.8125	5475.0302734375	-2711.92333984375
0.1785	-0.0	-0.0	-0.0	-0.0	-0.0	-0.0	-6.14785623550415	-3.0461080074310303	-817.298828125	-0.0	-0.0	-0.0	-0.0	-0.0	-0.0	219478.3125	5789.0537109375	-3060.5419921875
0.179	-0.0	-0.0	-0.0	-0.0	-0.0	-0.0	-6.556497097015381	-4.5927276611328125	-815.067626953125	-0.0	-0.0	-0.0	-0.0	-0.0	-0.0	218328.09375	5674.0107421875	-3230.224609375
